<svg xmlns="http://www.w3.org/2000/svg" width="18.364" height="21.5" viewBox="0 0 18.364 21.5"><path d="M12.172,3.49A4.735,4.735,0,0,0,13.212,0,5.048,5.048,0,0,0,9.945,1.768a4.379,4.379,0,0,0-1.069,3.4,4.261,4.261,0,0,0,3.3-1.683Zm6.192,12.284a15.734,15.734,0,0,1-1.389,2.607c-.9,1.382-2.171,3.1-3.747,3.115-1.4.015-1.759-.916-3.658-.9s-2.295.923-3.7.909C4.3,21.486,3.1,19.934,2.2,18.552-.325,14.691-.59,10.159.965,7.748A5.579,5.579,0,0,1,5.453,5.035c1.668,0,2.717.92,4.1.92,1.339,0,2.154-.923,4.084-.923a5.44,5.44,0,0,1,4.107,2.181A4.737,4.737,0,0,0,18.364,15.774Z" transform="translate(0)" fill="#d51970" fill-rule="evenodd"/></svg>