<svg xmlns="http://www.w3.org/2000/svg" width="324.062" height="69.066" viewBox="0 0 324.062 69.066"><g transform="translate(-795.938 -179.967)"><text transform="translate(1001 231)" fill="#fff" font-size="50" font-family="Nunito-ExtraBold, Nunito" font-weight="800"><tspan x="-118.15" y="0">CRUSHEE</tspan></text><g transform="translate(386.938 -22.033)"><path d="M767.294,566.387l0,29.58h27.243A5.063,5.063,0,0,0,799.6,590.9V563.866H769.815A6,6,0,0,1,767.294,566.387Z" transform="translate(-337.687 -341.056)" fill="#f88ebf"/><path d="M639.047,384.475v-4.6a3.428,3.428,0,0,0-3.424-3.424h-4.6a3.429,3.429,0,0,0-3.416,3.183H591.252a3.429,3.429,0,0,0-3.416-3.183h-4.6a3.428,3.428,0,0,0-3.424,3.424v4.6a3.429,3.429,0,0,0,3.19,3.417l0,36.152a3.429,3.429,0,0,0-3.183,3.416v4.6a3.428,3.428,0,0,0,3.424,3.424h4.6a3.429,3.429,0,0,0,3.417-3.19h36.357a3.429,3.429,0,0,0,3.416,3.19h4.6a3.428,3.428,0,0,0,3.424-3.424v-4.6a3.429,3.429,0,0,0-3.183-3.416l0-36.152A3.429,3.429,0,0,0,639.047,384.475Zm-8.253,3.417,0,36.151a3.43,3.43,0,0,0-3.192,3.192H591.25a3.43,3.43,0,0,0-3.192-3.192l0-36.151a3.43,3.43,0,0,0,3.192-3.192H627.6A3.43,3.43,0,0,0,630.794,387.892Z" transform="translate(-160.985 -164.422)" fill="#fff"/><path d="M419.481,225.325a5.975,5.975,0,0,1-3.19-5.272v-4.6a5.963,5.963,0,0,1,5.956-5.956h4.6a5.977,5.977,0,0,1,5.268,3.183H461.91v-5.62A5.063,5.063,0,0,0,456.847,202H414.063A5.063,5.063,0,0,0,409,207.063v42.784a5.063,5.063,0,0,0,5.063,5.063h5.415Z" fill="#f88ebf"/></g></g></svg>