<svg xmlns="http://www.w3.org/2000/svg" viewBox="0 0 84 84"><path d="M40.58 45.82a2.92 2.92 0 01-.59-2 6.38 6.38 0 01.73-3.21A13.14 13.14 0 0142.77 38a14.55 14.55 0 001.41-1.75 3 3 0 00.47-1.64 1.75 1.75 0 00-.65-1.42 2.78 2.78 0 00-1.8-.53 5.32 5.32 0 00-1.86.35 14.11 14.11 0 00-2.06 1l-1 .5a4.93 4.93 0 01-2.25.77 2.15 2.15 0 01-1.73-.87 3.28 3.28 0 01-.72-2.15 2.94 2.94 0 01.31-1.43 3.49 3.49 0 011-1.1 14.72 14.72 0 014.19-2.11 15.41 15.41 0 014.72-.75 11.52 11.52 0 014.74.92 7.84 7.84 0 013.27 2.53A6 6 0 0152 34a6.17 6.17 0 01-.63 2.78 8.49 8.49 0 01-1.54 2.16L47.5 41.1a19 19 0 00-2.06 1.9 3.91 3.91 0 00-.92 1.65 2.19 2.19 0 01-.79 1.35 2.37 2.37 0 01-1.5.49 2.06 2.06 0 01-1.65-.67zm-1.06 9.3a4.08 4.08 0 010-5.64 3.77 3.77 0 012.8-1.14 3.83 3.83 0 012.84 1.14 4.11 4.11 0 010 5.64 3.8 3.8 0 01-2.84 1.15 3.74 3.74 0 01-2.8-1.15z" fill="#fff"/></svg>