<svg xmlns="http://www.w3.org/2000/svg" viewBox="0 0 84 84"><path d="M40.58 45.82a2.92 2.92 0 0 1-.59-2 6.38 6.38 0 0 1 .73-3.21A13.14 13.14 0 0 1 42.77 38a14.55 14.55 0 0 0 1.41-1.75 3 3 0 0 0 .47-1.64 1.75 1.75 0 0 0-.65-1.42 2.78 2.78 0 0 0-1.8-.53 5.32 5.32 0 0 0-1.86.35 14.11 14.11 0 0 0-2.06 1l-1 .5a4.93 4.93 0 0 1-2.25.77 2.15 2.15 0 0 1-1.73-.87 3.28 3.28 0 0 1-.72-2.15 2.94 2.94 0 0 1 .31-1.43 3.49 3.49 0 0 1 1-1.1 14.72 14.72 0 0 1 4.19-2.11 15.41 15.41 0 0 1 4.72-.75 11.52 11.52 0 0 1 4.74.92 7.84 7.84 0 0 1 3.27 2.53A6 6 0 0 1 52 34a6.17 6.17 0 0 1-.63 2.78 8.49 8.49 0 0 1-1.54 2.16L47.5 41.1A19 19 0 0 0 45.44 43a3.91 3.91 0 0 0-.92 1.65 2.19 2.19 0 0 1-.79 1.35 2.37 2.37 0 0 1-1.5.49 2.06 2.06 0 0 1-1.65-.67zm-1.06 9.3a4.08 4.08 0 0 1 0-5.64 3.77 3.77 0 0 1 2.8-1.14 3.83 3.83 0 0 1 2.84 1.14 4.11 4.11 0 0 1 0 5.64 3.8 3.8 0 0 1-2.84 1.15 3.74 3.74 0 0 1-2.8-1.15z" fill="#fff"/></svg>